<svg xmlns="http://www.w3.org/2000/svg" xmlns:xlink="http://www.w3.org/1999/xlink" width="21.871" height="21.866" viewBox="0 0 20.503851 20.499819"><defs><linearGradient id="a"><stop offset="0"/><stop offset="1" stop-opacity="0"/></linearGradient><linearGradient xlink:href="#a" id="b" x1="239.213" y1="392.694" x2="260.195" y2="411.311" gradientUnits="userSpaceOnUse"/></defs><path d="M241.78 409.056c2.279-3.378 4.9-7.346 5.337-7.287 1.526 1.018 4.554 4.465 6.356 6.943.46.102.94.237 1.048-.344.187-1.327-.464-3.226-2.096-5.796-.737-1.201-1.474-2.396-2.262-3.386-.161-.171-.014-.279.071-.4 2.84-2.516 5.848-5.313 8.98-7.79-.026-.46.26-.92-.741-1.38a13.62 13.62 0 0 0-3.276.204c-.666.184-1.39.166-1.911.852-2.079 1.639-3.9 3.393-5.616 5.193-.088.266-.39.325-.644-.02-1.143-.906-2.251-1.7-2.827-1.968-.372-.312-2.307-.445-3.432-.101-.552.15-1.052.472-1.19.73-.31.348-.345.74.02 1.197 1.008.994 2.84 2.275 4.602 3.53a.55.55 0 0 1 .039.528c-.877 1.243-1.731 2.495-2.242 3.833-1.514 2.843-1.614 3.96-1.736 5.134.416.884.92 1.013 1.52.328z" fill="url(#b)" fill-rule="evenodd" stroke="#fff" stroke-width=".1" transform="translate(-239.034 -389.293)"/></svg>